# xmcd
#
# Track frame offsets:
# 180
# 13594
# 24889
# 37132
# 50504
# 59281
# 73024
# 83555
# 97697
# 110098
# 123847
# 135592
#
# Disc length: 1974 seconds
#
#
# Revision: 1
# Processed by: cddbd v1.5.1PL2 Copyright (c) Steve Scherf et al.
# Submitted via: FreeRIP 2.945 
#
DISCID=9407b40c
DTITLE=Rolando La Serie- Roberto Ledesma - Exitos De Siempre
DYEAR=1900
DGENRE=Bolero
TTITLE0=RL - Con Mi Corazon Te Espero
TTITLE1=RLS - Negrura
TTITLE2=RL - Camino Del Puente
TTITLE3=RLS - Lagrimas Negras
TTITLE4=RL - Contigo Aprendi
TTITLE5=RLS - Inolvidable
TTITLE6=RL - Esta Tarde VI Llover
TTITLE7=RLS - Flores Negras
TTITLE8=RL - Recuerdos
TTITLE9=RLS - Que Es Lo Que Me Pasa
TTITLE10=RL - Adoro
TTITLE11=RLS - Esta Noche Me Emborracho
EXTD=ES (2006-08-20)
EXTT0=
EXTT1=
EXTT2=
EXTT3=
EXTT4=
EXTT5=
EXTT6=
EXTT7=
EXTT8=
EXTT9=
EXTT10=
EXTT11=
PLAYORDER=
